<svg xmlns="http://www.w3.org/2000/svg" width="118" height="69.365" viewBox="0 0 118 69.365"><path d="M21.944,65.388a2.014,2.014,0,0,1-.491-.2,3.184,3.184,0,0,1-1.673-2.719q-.06-.95-.026-1.988A47.456,47.456,0,0,1,20.9,52.348a88.31,88.31,0,0,1,2.881-10.2q3.087-8.886,5.909-12.363.47-.617.834-.651a2.079,2.079,0,0,1,1.327.856h.045q.527.469.515.83,0,.091-1.812,4.367l-2.357,5.84a.622.622,0,0,1-.026.135.908.908,0,0,0-.031.225c0,.121.024.181.085.183l.137-.041a49.121,49.121,0,0,0,9.451-7.372,13.171,13.171,0,0,0,3.465-5.217,4.126,4.126,0,0,0,.167-.988,2.921,2.921,0,0,0-1.319-2.481,8.6,8.6,0,0,0-5.012-1.426,9.1,9.1,0,0,0-2.811.316A19.133,19.133,0,0,0,23.8,29a7.808,7.808,0,0,0-2.52,5.292q-.026.812-.478.8a1.116,1.116,0,0,1-.491-.2q-2.006-.787-1.957-2.321a3.62,3.62,0,0,1,.264-1.211A11.662,11.662,0,0,1,23,25.682a20.915,20.915,0,0,1,12.095-3.944,12.811,12.811,0,0,1,6,1.616,6.594,6.594,0,0,1,3.278,4.78,8.865,8.865,0,0,1,.085,1.538,7.813,7.813,0,0,1-.633,2.825,14.044,14.044,0,0,1-2.989,4.464,48.825,48.825,0,0,1-10.046,7.623,8.662,8.662,0,0,1-1.6.761.614.614,0,0,0-.47.572l.079.364a26.546,26.546,0,0,0,6.662,11.866,5.69,5.69,0,0,0,4.265,2.17l.362-.034c.3.01.447.134.439.376a.605.605,0,0,1-.147.357A2.83,2.83,0,0,1,38,61.8a7.376,7.376,0,0,1-5.414-2.975,28.912,28.912,0,0,1-6-10.084l-.37-1.1a1.526,1.526,0,0,0-.433.844q-1.476,5.145-2.609,10.844a21.492,21.492,0,0,0-.636,4.315,5.587,5.587,0,0,0,.061.905l-.006.18a.7.7,0,0,1-.078.314.655.655,0,0,1-.256.24A.63.63,0,0,1,21.944,65.388Z" transform="translate(-18.352 -21.738)" fill="#41a6df"/><path d="M122.057,51.907a.74.74,0,0,0,.6-.387,13.053,13.053,0,0,1,1.507-1.893.645.645,0,0,0,.287-.488.656.656,0,0,0-.3-.551q-.734-1.063-1.184-1.077a.488.488,0,0,0-.365.124l-1.837,2.334-.006.18a1.819,1.819,0,0,0,.591,1.284Q121.786,51.9,122.057,51.907ZM184.4,60.921q-.5-.016-1.776,1.84-5.358,7.864-8.019,7.779-.586-.019-.529-1.778a23.13,23.13,0,0,1,.695-4.719q3.372-10.729,5.125-14.669t2.523-5.405a1.318,1.318,0,0,0,.3-.8,2.6,2.6,0,0,0-.305-1.049,2.529,2.529,0,0,0-.558-.876.873.873,0,0,0-.513-.2q-1.5.178-4.079,6.055a100.145,100.145,0,0,0-5.324,14.373l-.02.04q-5.053,6.837-7.154,7.581.161-3.607,2.907-8.892a2,2,0,0,0,.348-.982q.022-.677-.989-1.522a1.368,1.368,0,0,0-.8-.387q-.406-.013-1.109.777A8.054,8.054,0,0,1,163.4,59.52l-1.269-1.26a4.244,4.244,0,0,0-2.581-1.167,4.032,4.032,0,0,0-3.031,1.573c0,.061-.019.09-.048.089a14.655,14.655,0,0,0-2.906,4.832q-2.2,4.17-3.814,4.7a9.857,9.857,0,0,1-.084-1.628,10.405,10.405,0,0,1,.4-2.516q1.09-4.39,1.1-4.8a3.553,3.553,0,0,0-1.88-3.312,1.78,1.78,0,0,0-.937-.347q-1.313.093-3.772,2.136a11.083,11.083,0,0,1-1.113.913l.582-1.246a2.721,2.721,0,0,0,.493-1.294q.024-.721-1.039-1.388a.978.978,0,0,0-.622-.291.912.912,0,0,0-.642.3,6.319,6.319,0,0,0-1.408,1.671l-.763,1.24a14.981,14.981,0,0,0-.852,1.869,11.56,11.56,0,0,1-4,1.632l-.135,0q-.406-.013-.387-.6a10.756,10.756,0,0,0,.4-2.516,6.791,6.791,0,0,0-.223-2.175,6.882,6.882,0,0,0-.956-1.86,2.038,2.038,0,0,0-1.593-1.022,2.392,2.392,0,0,0-1.418.541,11.578,11.578,0,0,0-2.886,2.662,17.723,17.723,0,0,0-1.754,2.956,1.657,1.657,0,0,0-.291.274l-1.222,1.451q-5.271,6.6-6.624,6.56-.361-.012-.343-.553.1-3.2,2.745-9.485a2.322,2.322,0,0,0-1.481-3.073.779.779,0,0,0-.5.165,4.659,4.659,0,0,0-1.214,1.225,28.905,28.905,0,0,0-1.574,3.131,53.031,53.031,0,0,0-4.193,3.457l-2.086,1.649a.658.658,0,0,1-.123-.41q1.009-3.263,2.285-6.429a3.439,3.439,0,0,0,.355-1.208q.022-.677-.992-1.432a1.651,1.651,0,0,0-.8-.342q-.5-.016-1.707,1.119-1.883-1.822-3.147-1.863a5.082,5.082,0,0,0-2.971,1.123,14.284,14.284,0,0,0-4.583,5.685q-4.856,6.019-7.489,5.937a1.353,1.353,0,0,1-1.24-.763,2.374,2.374,0,0,1-.276-1.228q.039-1.218.362-1.433l.319-.08a7.5,7.5,0,0,0,5.721-5.144,3.858,3.858,0,0,0,.216-1.122,2.906,2.906,0,0,0-1.01-2.291,2.272,2.272,0,0,0-1.425-.588,3.975,3.975,0,0,0-2.614,1.225,13.7,13.7,0,0,0-4.828,9.644,6.093,6.093,0,0,0,.983,3.8,3.277,3.277,0,0,0,2.637,1.553q2.48.08,5.931-3.285c.556-.575,1.069-1.109,1.547-1.611a5.034,5.034,0,0,0,1.591,3.7,2.782,2.782,0,0,0,1.555.818,2.573,2.573,0,0,0,1.51-.629,15.317,15.317,0,0,0,2.9-3.067,2.325,2.325,0,0,1,.791-.742,19.424,19.424,0,0,0-.7,2.19,4.287,4.287,0,0,1-1.38,2.169Q93.759,78,93.648,81.38a3.585,3.585,0,0,0,.8,2.532,2.652,2.652,0,0,0,1.976,1.035,3.838,3.838,0,0,0,1.134-.144,11.313,11.313,0,0,0,4.176-3.455,23.976,23.976,0,0,0,3-4.667,59.117,59.117,0,0,0,2.771-7.5,2.966,2.966,0,0,1,1.185-1.723q2.091-1.595,6.175-5.148-.193,1.741-.207,2.135a6.138,6.138,0,0,0,1.781,4.98,2.379,2.379,0,0,0,1.643.866q1.263.041,3.037-1.754,1.908-2.1,3.7-4.3-.036.288-.062.578a6.668,6.668,0,0,0,1.567,4.612,1.91,1.91,0,0,0,1.461.905l.135,0a2.735,2.735,0,0,0,1.324-.454,6.724,6.724,0,0,0,2.05-1.966,17.178,17.178,0,0,0,2.053-3.411.9.9,0,0,1,.972-.736,12.264,12.264,0,0,0,2.866-.675c.319-.109.622-.227.912-.351-.44,1.338-.926,2.905-1.459,4.713a2.357,2.357,0,0,0,.77,2.734,1.421,1.421,0,0,0,.887.481q.586.019.975-.827a33.058,33.058,0,0,1,3.937-7.234,14.735,14.735,0,0,1,3.088-3.332,3.784,3.784,0,0,1,1.742-.8,6.687,6.687,0,0,1-.374,1.794,21.744,21.744,0,0,0-1.088,5.7,5.239,5.239,0,0,0,2.113,4.494,2.453,2.453,0,0,0,1.471.589,2.629,2.629,0,0,0,1.692-.668,8.95,8.95,0,0,0,1.74-2.038,5.991,5.991,0,0,0,.91,1.085q.438.421.921.842a1.49,1.49,0,0,0,.889.436q1.308.042,4.762-4.814a.987.987,0,0,1,.513-.525l-.047,1.444a5.449,5.449,0,0,0,2.062,4.673,1.823,1.823,0,0,0,1.157.534,2.26,2.26,0,0,0,1.7-.893,68.186,68.186,0,0,0,4.6-5.241c-.027.235-.053.468-.071.691a8.192,8.192,0,0,0,1.538,5.514,3.226,3.226,0,0,0,2.35,1.34q3.249.105,8.7-8.028a10.369,10.369,0,0,0,1.78-3.375Q185.392,60.953,184.4,60.921ZM93.284,56.306a4.5,4.5,0,0,1-3.151,3.872A12.467,12.467,0,0,1,93.284,56.306Zm8.188,19.8a23.579,23.579,0,0,1-3.2,3.984,8.176,8.176,0,0,1-2.523,1.905,21.008,21.008,0,0,1,3.387-5.58q2.589-3.3,4.415-5.276A14.336,14.336,0,0,1,101.473,76.1Zm5.16-17.829q-4.318,6.409-6.389,7.651a.814.814,0,0,1-.122-.41.714.714,0,0,1,.1-.448A18.85,18.85,0,0,1,103.9,57.6a6.037,6.037,0,0,1,2.04-1.65,1.123,1.123,0,0,1,.5-.119,1.07,1.07,0,0,1,.8.432.9.9,0,0,1,.207.594A6.651,6.651,0,0,1,106.633,58.272Zm23.785,6.007a15.363,15.363,0,0,1-2.027,2.644,1.592,1.592,0,0,1-.644.341,14.34,14.34,0,0,1,1.833-6.4,2.048,2.048,0,0,1,.7.745A3.528,3.528,0,0,1,131,62.989,3.41,3.41,0,0,1,130.417,64.279Zm1.7-3.783a1.963,1.963,0,0,1-.9-1.519q.032-.992,1.646-2.024A11.543,11.543,0,0,1,132.12,60.5Zm25,6.092.012-.361a7.555,7.555,0,0,1,.9-3.313,4.912,4.912,0,0,1,1.647-2.046,2.684,2.684,0,0,1,1.211-.435,1.392,1.392,0,0,1,1.061.667A58.935,58.935,0,0,1,157.121,66.588Z" transform="translate(-67.358 -35.823)" fill="#41a6df"/><g transform="translate(2.109 44.024)"><path d="M179.877,185.557v3.815H167.412v6.608h11.1v3.815h-11.1v6.744h12.942v3.815H163.427v-24.8Z" transform="translate(-126.308 -185.284)" fill="#ec0127"/><path d="M259.861,210.352l-5.586-8.617H250.29v8.617h-3.985v-24.8h6.982a9.985,9.985,0,0,1,6.659,2.112,7.251,7.251,0,0,1,2.5,5.858,9.418,9.418,0,0,1-.97,4.24,6.647,6.647,0,0,1-3.048,3.014l6.029,9.571Zm-9.571-12.431h3.542a4.214,4.214,0,0,0,3.457-1.311,4.53,4.53,0,0,0,1.073-2.946,4.94,4.94,0,0,0-.409-1.924,3.9,3.9,0,0,0-1.4-1.669,4.4,4.4,0,0,0-2.589-.7H250.29Z" transform="translate(-186.775 -185.284)" fill="#ec0127"/><path d="M324.214,190.935a12.937,12.937,0,0,1,4.615-4.649,12.421,12.421,0,0,1,12.67,0,13.174,13.174,0,0,1,4.649,4.666,12.409,12.409,0,0,1,.017,12.636,12.8,12.8,0,0,1-4.649,4.6,12.721,12.721,0,0,1-12.687.017,12.58,12.58,0,0,1-4.615-4.581,12.668,12.668,0,0,1,0-12.687Zm3.542,10.746a8.774,8.774,0,0,0,3.15,3.2,8.365,8.365,0,0,0,4.377,1.192,8.128,8.128,0,0,0,4.292-1.175,8.6,8.6,0,0,0,3.082-3.2,9.2,9.2,0,0,0-.017-8.906,8.758,8.758,0,0,0-3.134-3.236,8.476,8.476,0,0,0-8.668,0,8.659,8.659,0,0,0-3.1,3.236,8.994,8.994,0,0,0-1.141,4.462A8.7,8.7,0,0,0,327.756,201.681Z" transform="translate(-242.375 -184.549)" fill="#ec0127"/><path d="M80,187.344a9.32,9.32,0,0,0,2.29-1.787H79.8l-.009,1.9.214-.1Zm1.61,2.9a3.839,3.839,0,0,1-1.134.144,2.438,2.438,0,0,1-.632-.106v5.735H67.655V185.557H63.67v24.8h3.985V199.794H79.848v10.558h3.985V188.826A9.253,9.253,0,0,1,81.614,190.24Z" transform="translate(-53.525 -185.284)" fill="#ec0127"/><circle cx="2.163" cy="2.163" r="2.163" transform="translate(0 10.341)" fill="#ec0127"/><circle cx="2.163" cy="2.163" r="2.163" transform="translate(110.872 10.341)" fill="#ec0127"/></g></svg>